<?xml version="1.0"?><svg version="1.2" baseProfile="tiny-ps" viewBox="0 0 261 261" xmlns="http://www.w3.org/2000/svg" xmlns:xlink="http://www.w3.org/1999/xlink"><title>martyn </title><g><g fill="#ecde66" transform="matrix(.1 0 0 -.1 0 261)"><path d="M1105 2594c-189-32-373-104-534-211l-86-57-100-101-101-100-57-86c-111-168-183-352-212-549l-15-95v-180l15-95c29-196 101-382 210-546l56-83 76-81 76-81 86-64 86-65 107-55 107-54 98-30c54-17 141-37 193-46l95-15h203l114 19 113 20 90 32c115 40 208 87 315 157l85 56 100 101 101 100 57 86c111 168 183 352 212 549l15 95v177l-16 107-15 106-34 102c-41 122-89 220-161 330l-55 82-76 81-76 81-86 65-86 64-95 49c-52 27-135 63-185 81l-90 31-113 20-114 19-111-1-112-1-80-14z"/></g><g fill="#c9ae4c" transform="matrix(.1 0 0 -.1 0 261)"><path d="m1145 2599-40-7 75 4c41 3 76 7 79 9 7 7-68 3-114-6zm-175-34c-152-42-262-92-400-183l-85-56-100-101-101-100-57-86c-111-168-183-352-212-549l-15-95v-180l15-95c48-318 212-615 448-812l58-48 9 5 9 5 7-11 7-12-11 7c-7 4-12 5-12 3s18-16 40-31l41-27 12 7 12 7-7-8-8-8 20-14c11-8 33-17 47-19 15-3 32-9 38-13 18-14 169-73 235-92 36-11 115-26 175-35l110-16 98 6c168 11 333 54 482 126 80 39 237 137 243 152 2 4 8 8 14 8h11l-18-20c-9-10-52-42-94-71-99-68-110-80-36-39 103 56 187 120 285 219l95 96 58 86c111 168 183 352 212 549l15 95v177l-16 107-15 106-34 102c-41 122-89 220-161 330l-55 82-76 81-76 81-86 65-86 65-119 59-119 60-24-6-23-6v23l-9-5c-5-3-42 1-83 9-40 8-111 19-158 24l-85 8-13-7-13-6 83-12c102-13 197-34 182-39-6-2-40 4-75 12l-64 16-157 6-156 6 5 13 5 14h-10c-6 0-14-9-17-20l-6-20h-61l6 15 5 15h-24l15 10 15 10-25-1c-14 0-63-11-110-24zm710-65 15-10-10 1c-5 0-19 4-30 9l-20 9h15c8 0 22-4 30-9zm60-20 15-10-10 1c-5 0-19 4-30 9l-20 9h15c8 0 22-4 30-9zm45-20 6-10-15 6c-18 7-21 14-7 14 6 0 13-4 16-10zm-189-431 22-21-10-29c-5-16-14-29-20-29h-9l5-9 6-9-75-110c-41-61-75-112-75-115 0-2 27-33 60-68l60-64-5-13-5-13 9 5 9 6 11-14 12-14-15-5-15-6-5 12c-2 7-3-10-2-36l3-48-18-10-19-10v16c0 8 5 15 10 15 23 0 5 29-60 100l-70 75 3-115 2-115 27-3 28-3-10-20c-6-10-17-19-24-19s-33-10-57-23-52-26-62-30l-18-7 6 23c4 12 13 34 20 49l13 26-5 26-5 26h32v-29c0-17-4-32-9-35l-9-6 5-20 5-20 8 5 8 5-5 20-5 20h19l1 30 1 30-10 5c-5 4-9 17-9 31v25l-15 5-15 6v79l14-13 14-13-5-9-6-9 14 5c8 3 16 13 17 23l4 17-9-5-9-6 3 37c4 45 11 129 15 199l4 52-13 5-13 5v62l-10-6c-5-3-10-4-10-1s5 8 10 11l10 6 9-23 10-23v18c1 25 25 47 50 47h21v-10c0-5-8-13-17-19l-18-9-3-81-4-81h8c5 0 26 25 47 55l38 55 11-6 11-7-7 11-7 12 42 55c23 30 46 55 52 55h10l-23 20c-13 11-19 20-15 20 5 0 19-9 31-21zm-269-201-5-13v50l5-12c2-7 2-19 0-25zm0-140-5-13v50l5-12c2-7 2-19 0-25zm10-203v-14l-9 5-8 5 5 10c9 13 12 11 12-6zm197-157-5-7-14 6-15 5v-62h-9c-4 0-42-22-82-50-41-27-80-50-88-50h-14l6 7 7 6-15 17-15 17 24 11 24 11 6-15c3-8 11-14 18-14h13l-14 9-14 9 6 15 5 14 74 41c40 22 81 40 90 39l17-1-5-8zm-273-151-12-12 7 18c3 10 9 15 12 12s0-11-7-18zM636 933c-9-71-16-154-16-184v-56l14-48 15-48-10 10c-36 36-37 299-3 418l6 20-15-15c-16-15-101-209-113-255l-6-25h-25l8 48c4 26 8 83 7 127v80l-19-90-18-90-33-64-34-64-33-18-34-18-11 6-10 7 30 8 31 8 27 39c37 53 61 119 81 226 10 50 22 95 27 100l9 10-3-128-3-127h8c4 0 7 6 7 13 0 16 83 200 106 235l17 27 4-12c3-7-3-70-11-140zm977 95c-26-45-142-159-186-183l-37-20v-13c0-30 89-146 134-173l31-19h-35l-39 36c-22 19-54 58-73 86l-33 52-7-30c-4-16-12-51-17-79l-10-50 6 70c3 39 6 81 7 95s4 30 7 35c3 6 19 56 34 113l28 102h18l-5-17c-19-66-46-170-46-181v-14l32 20c42 27 138 121 169 166 30 44 47 47 22 4zm633-64c-35-96-47-155-56-259l-7-90-1 84-2 84-21-27c-11-14-34-33-51-42l-31-16-20 21-20 20 1 50 1 51h-7c-4-1-23-24-42-53-20-29-40-51-45-50-6 1-13 16-16 32l-6 31h7c4 0 11 12 15 28l7 27 5-12c2-6 0-28-6-47-5-20-6-36-3-36 4 1 23 24 42 53l35 52 16 3 15 3-4-63-4-63 15-19 14-19 11 7 11 7-1 35-1 35 29 42 30 42h23l23 1 17 49c34 94 43 116 47 112 3-2-7-35-20-73zm-1242 36-6-30 13-1h14l-21-9-21-8-22-77c-13-42-27-109-31-149l-7-71-2 50c-1 51 18 158 38 208 6 16 11 33 11 39v10l-47-6-48-6 20 9c11 5 34 10 52 10l31 1 7 30c4 17 11 30 16 30h9l-6-30zm144-37c-10-2-26-2-35 0l-18 5h70l-17-5zm517-68c-8-26-15-53-15-58v-10l25 23c35 32 31 18-8-33l-32-42-24-118-24-117h-18l7 23c4 12 8 29 9 37s5 35 9 60 6 49 4 55l-3 9-23-2-22-3-7 17-6 17 12 46c7 25 16 50 20 54 5 5 2-17-6-49l-15-56 11-11 11-11 24 23 24 23 22 81c23 84 29 101 36 95 2-2-3-26-11-53zm79-59c0-25 2-45 5-43s20 10 38 17l32 14 12 22c6 13 18 25 26 28l14 6 19-10 19-10 3-38 3-37-38-32c-44-38-46-38-72-19l-20 14 28-5 27-5 16 12 15 13-5 14-5 13h27l5 28 6 27-14 14-14 14-15-13c-9-7-16-19-16-26 0-8-5-14-10-14-6 0-17-15-25-32l-14-33-1 23v23l-22-12c-13-6-37-25-55-42l-32-30-16 7-17 6 11 14c7 8 22 17 35 20l23 6 11 25c7 14 12 39 12 55v28l-10 5-10 6 12-3 13-3-1-47zm-1040 7c-25-27-45-81-36-97l5-9 31 36c17 20 34 37 38 37h6l-5-40-6-40h12c7 0 23 12 36 26l25 26 6 37c4 20 9 40 12 46l6 10 7-33 7-34-14-26c-8-15-14-40-14-57l-1-30-12 22-12 22-18-11-18-10-15 6-14 5v21c0 26-14 26-32-2l-14-22-18 7-18 7 6 32c6 33 50 98 66 98 5 0-2-12-16-27zm205 14c-14-7-33-18-43-26l-16-13v8c0 12 51 44 70 43l15-1-26-11zm286-66v-80l-8 9-9 8 4 56 3 56-10-3c-5-2-28-30-49-62l-39-58-13 18-14 18-18-16c-10-9-26-17-34-17h-16l-6 17-7 16 16 55c9 30 18 52 20 50 3-2 0-20-5-39-11-38-13-89-4-89 3 0 19 9 35 20l28 21 7 35c3 19 10 37 15 40l9 5v-9c0-5-5-23-11-40s-9-39-7-49l3-18 24 40c25 42 70 95 81 95 3 0 6-36 5-79zm1089 62c-20-20-44-75-44-100v-17l40 39 40 39v-84h14c8 0 24 12 36 28 12 15 18 20 14 12s-14-23-22-32l-15-18h-37l-6 25c-8 31-11 31-33 3l-18-21-11 7c-7 4-12 17-12 28 0 26 47 108 61 108h10l-17-17zm-1898-4 6-11-18 2c-11 1-25 2-32 1l-13-1-21-46-20-46 4-33 4-34-8 5c-22 14 0 115 34 151l21 23h18c10 0 21-5 25-11zm859-139c-3-5-14-10-23-9h-17l20 9c27 11 27 11 20 0zm894-373c-2-1-13-9-24-17l-20-15 14 18c7 9 18 17 24 17s8-1 6-3zm-722 1393c3-11 7-20 9-20s4 9 4 20-4 20-9 20h-9l5-20zm718-907-25-38v-22c0-42 32-20 64 44 20 40 20 53 1 53h-14l-26-37zm-470-83-6-10h10c6 0 11 5 11 10 0 6-2 10-4 10-3 0-8-4-11-10z"/></g><g fill="#ab822c" transform="matrix(.1 0 0 -.1 0 261)"><path d="M1188 2603c7-3 16-2 19 1 4 3-2 6-13 5l-19-1 13-5zm-130-20c7-3 16-2 19 1 4 3-2 6-13 5l-19-1 13-5zm-40-10c7-3 16-2 19 1 4 3-2 6-13 5l-19-1 13-5zm472-23c58-10 139-30 180-44 91-30 235-94 228-102-4-3-28 6-55 19-73 37-178 72-288 98l-100 22h-165l-165 1-80-18c-115-25-218-62-315-112l-85-44 28 23 27 23-12 12-12 12h11c6 0 14-6 16-12l5-13 10 13c5 8 13 14 18 15s8 7 8 14l-1 11 66 30c36 17 76 33 89 37s21 9 19 11c-6 7-120-37-197-76-36-18-103-57-150-88l-85-56-100-101-101-100-57-86c-112-169-182-351-213-554l-16-100 5-125 5-125 17-80c9-44 30-122 47-172l31-93h18l-6-9-5-10 10-6c5-3 18-26 29-50 23-53 34-59 20-13-14 49-11 48 17-5l25-48-7-11-7-11 11 7 11 6 7-11 7-11-14-10-14-10 17 5 16 6 35-53c88-133 225-264 368-355 85-53 235-116 358-149l96-26h380l115 31 115 31 87 40c48 22 127 66 174 97l86 56 97 94 98 95 58 82c32 46 63 88 68 93l10 10-8-15c-5-8-36-55-69-105l-61-90-74-78c-41-43-109-103-150-134-42-31-80-61-86-66-16-16 64 32 135 82l65 45 95 95 95 96 58 86c111 168 183 352 212 549l15 95v180l-15 100c-34 229-122 423-292 645-35 45-188 184-233 211-19 12-39 28-43 35-5 8-12 12-16 10-5-3-23 8-41 24-19 17-40 31-47 31-21 2-24 3-108 36-104 40-239 70-345 77l-85 6 105-20zm-835-140c-3-5-11-10-16-10h-10l6 10c3 6 11 10 16 10h10l-6-10zm1295-36c0-2-9 0-20 6s-20 13-20 16c0 2 9 0 20-6s20-13 20-16zm50-30c0-2-9 0-20 6s-20 13-20 16c0 2 9 0 20-6s20-13 20-16zm-331-283c3-1-2-7-11-13-9-7-18-25-22-39-3-15-22-50-41-79s-35-57-35-64c0-6-9-17-20-24s-20-17-20-24c0-6-19-36-41-66l-42-55 16-8c8-5 47-45 86-90l71-80-5-10-6-9 28 10 28 10-20-16c-11-8-19-20-17-25l2-9-45-22-45-22-7 8-7 7 11 18 12 19-61 71-61 72-9-9-9-9 3-99 3-99 28 3 27 3v-13c0-7-4-17-8-23-11-15-134-75-154-75h-18v12c0 6 6 19 14 27l14 16 7 253 8 252h-9l-9-1-50-150c-27-83-56-155-62-161l-13-10-13 10c-7 6-26 49-42 96l-29 85 12 23 13 23-5-22-4-23 9-6 9-5v36l10-15 9-15-9-9c-6-6-10-15-10-20 0-18 28 28 33 54l5 25 1-60c1-33 2-74 1-92v-32l10-6 10-6v25c0 14 5 28 10 31 6 3 10 14 9 23v17l-8-19-8-20-7 12-7 12 13 19c7 10 18 20 23 22 6 2 9 7 7 12-1 4 3 7 9 7h10l-2 23c-3 23 9 68 20 77 3 3 16 24 29 48l23 42h-21v51l-10-6-10-6 6 16 7 16 13-5 13-5 3 10 4 11 62-8 62-7v-10c0-5-7-15-15-21l-16-11 3-73 3-72 83 110c45 61 82 114 82 119s-7 11-15 15c-8 3-15 10-15 15v10l38 3c31 3 64 2 81-1zm-389-135c0-3-4-8-10-11l-10-6v10c0 6 5 11 10 11 6 0 10-2 10-4zm-18-69c-17-24-34-56-37-70-4-15-11-27-16-27h-8l19 53c10 28 21 60 25 69l7 18 8-5c5-3 12 0 15 6 4 5 10 8 13 5s-9-25-26-49zm431-325c-10-11-22-17-26-15l-8 5 12 14c6 8 18 14 25 14h14l-17-18zm-80-152c-3-11-10-20-15-20h-10l5-13 5-14-94-59c-52-32-118-74-147-92l-52-32-17 4c-9 2-64 37-122 77l-105 74v18l-1 18 11-7 11-6-18 27-18 27 100-63c54-34 106-68 115-76 20-17 44-17 72 1 20 14 280 156 283 156 1 0 0-9-3-20zm-961-305c2-3 1-31-3-62-5-32-13-109-19-171l-11-114 10-46c5-26 13-56 17-67l7-20-19 18-19 18v142c0 78 3 169 7 202l8 60-17-30c-10-16-38-80-63-142l-45-112-10 2-10 2 2 20c1 11 5 65 8 120l5 100-19-87-19-86-33-62-32-61-25-20c-31-24-54-24-77 1l-18 20 6 46 5 46 19 26c10 14 26 30 35 35l15 10 19-8 19-9-26-3-27-4-17-19c-9-10-21-36-25-57l-9-38 6-22 5-23h44l26 28c14 15 37 50 51 78l26 51 22 109c12 60 24 111 26 114 2 2 9-2 14-10l10-15-6-110-5-110 25 59c36 86 98 206 105 206 4 0 9-2 12-5zm944-74c-41-56-106-118-165-157l-42-27 6-14c3-8 22-40 42-70l37-55 39-29c22-16 48-29 59-29h18v13c0 6 3 29 6 50l7 37h-61l-5 13c-6 18 19 117 33 130l12 12-5-20c-3-11-11-40-17-64l-11-44 9-9 9-9 25 23 25 23 23 83c13 45 27 85 32 88l9 6-7-29c-4-15-11-38-15-51-5-13-9-28-9-35v-11l33 32 33 32h33l6-19c3-11 3-31-1-45l-6-26h10c6 0 18 7 26 16l16 15 10-6 10-6-10-19c-5-10-10-28-10-39v-21h48l13 16 13 16-17 9c-9 6-22 19-28 30l-10 20 16 25 15 24h18c10 0 23-5 30-12l12-12v-56h10c5 0 17 15 25 33l15 32-4-47c-2-27-2-48 0-48s10 12 18 28c8 15 26 40 41 55l27 27 10-6 9-6-6-53-7-53 11-21 12-21h31l-7 30-7 30 29 45 28 46 29 7 29 8 24 69c14 39 29 74 34 80l9 9v-10c0-6-12-44-26-85s-32-104-39-140l-12-66 1-62 2-61h-16v78l-1 77-12-15c-7-9-27-26-45-39l-34-23-24 10-23 11-7 26c-4 14-4 42-1 61 3 18 4 34 1 34-2 0-20-25-40-55l-37-55h-27v25c0 32-5 31-47-5l-34-30h-17c-25 0-42 20-42 47v23h-15c-8 0-30-16-49-35l-35-35h-41v10c0 5 17 21 39 34l39 25 6 36 7 35-7 11-6 11-25-24c-14-13-35-41-48-63l-24-40-17-97c-9-53-21-102-25-110l-8-12-7 6-6 7 10 30 11 31h-20c-11 0-37 9-59 20l-39 20-47 66-48 67-7-24c-4-13-10-46-14-73l-7-48-9 9-9 9 11 80c6 43 15 88 19 99 8 19 22 67 50 173l11 42h21l-5-22c-3-13-15-56-26-97-12-40-19-76-17-79 15-14 137 94 193 171l37 50 4-11 4-12-36-49zm-589 10-6-29 87-9 87-10-92-2-92-1-26-82-27-83-1-67-2-68h-15v127l11 32c15 42 8 46-36 26l-36-18-15-28c-8-16-18-45-23-66l-9-38-7 22-7 22-23-15-23-15-16 16c-9 9-16 21-16 27v11l-20-18-19-17-16 5-15 6v22c0 12 11 42 25 66l26 43 27-1 27-2-23-4-22-4-21-40-20-41 3-21 3-22 30 42c17 24 34 43 38 43h8l-7-45-6-45h9c5 0 19 9 31 20l21 20 12 43c6 23 14 49 17 57l6 15 4-28 3-27 27 18c15 11 40 22 55 26l28 7 6 29c3 16 5 33 4 37l-1 7-41-3-41-3 6 11 7 11h79l14 35c8 19 18 35 22 35h7l-6-29zm4-201-15-59 7-7 7-7 25 13 25 14 12 40c6 23 15 45 20 50 13 15 21 0 10-21-5-10-12-33-15-50l-6-33h7c4 0 21 23 37 51 30 51 58 75 74 64l9-5-10-34-11-34 7-36c8-44 16-49 49-31 28 14 36 8 15-13-7-7-22-12-34-12h-23l-15 21-15 22 6 50 6 50-11-7c-6-4-26-31-44-61l-33-55h-12c-6 0-13 6-16 13l-4 12-26-14-26-14-15 6-16 6v24c0 29 29 117 39 117h8l-16-60zm1291 50-23-10-20-46-21-46 7-6 7-7 33 37c18 20 36 34 38 31 3-2 3-22 0-44l-6-39h12c15 0 51 37 51 52 0 6 3 9 6 6 3-4-2-20-11-37l-16-31h-49l-6 26-6 25-22-20c-26-25-42-27-50-6l-5 15 10 26c5 15 19 40 30 55l20 29 22-1h22l-23-9zM371 493l14-18-17 14c-17 13-22 21-14 21 2 0 10-8 17-17zm89-98c30-30 52-55 49-55-2 0-29 25-59 55s-52 55-49 55c2 0 29-25 59-55zm680 1235c0-5 5-10 10-10 6 0 10 5 10 10 0 6-4 10-10 10-5 0-10-4-10-10zm-30-312v-17l-17 6-16 6 7-11c8-13 46-17 46-4 0 4-5 14-10 22l-10 15v-17zm734-484-7-25 11-11 11-11 15 6 16 6v61h-40l-6-26zm291-17c-25-44-32-77-16-77 17 0 74 97 65 111-10 18-23 8-49-34zM938 2553c7-3 16-2 19 1 4 3-2 6-13 5l-19-1 13-5z"/></g><g fill="#5c5027" transform="matrix(.1 0 0 -.1 0 261)"><path d="M1428 2563c7-3 16-2 19 1 4 3-2 6-13 5l-19-1 13-5zm106-18c100-21 220-62 311-108 86-42 204-117 225-142 7-8-21 7-61 34-188 123-407 197-645 216l-80 6-107-11-107-11-95-24-96-24-94-45c-52-24-130-69-172-98l-78-53-90-90-91-90-57-86c-31-48-75-124-96-170-39-83-56-103-26-32 8 20 13 38 11 40-5 6-60-130-85-211-12-39-28-111-36-160l-15-91v-213l19-114 20-113 32-90c40-114 77-189 145-292l55-82 75-80c128-136 247-220 414-292l93-40 106-26 106-27 166 1 166 1 59 12c175 34 314 91 459 188l100 66 86 86c149 148 255 312 325 503 39 109 45 104 8-7-82-252-269-508-486-663-66-48-60-52 10-7 314 200 530 535 587 914l15 95-1 105v105l-10-20-9-20 3 53 2 52h-17l4 30 5 30h-9c-4 0-8 8-8 19 0 10-11 59-25 107l-26 89-53 110-54 110-60 80-60 80-88 85-89 86-85 56-85 56-97 41c-114 49-224 79-316 86l-67 5 69-15zm-498-481 22-6 59-156c33-87 63-157 68-157 4 0 16 25 27 55 10 30 30 85 44 123l26 67h143l15-11 15-10-22-16-23-15v-151l85 113 85 113-16 18-16 18 7 10 6 11h199v-32l-12 5-13 4-37-20-38-21-77-115c-42-64-90-133-106-154l-30-39 9-6c5-4 42-44 83-89l73-83h15c8 0 27 9 43 20l27 19 7-6c3-3 6-12 6-20v-13l-56-36c-30-20-69-40-85-46l-29-10-16 6-17 6 16 18 16 18-65 73-65 73 3-109 3-108 23 3 22 3v-41l-77-38-78-39-12 4c-17 6-16 33 1 52l14 16 4 243 5 243-8-8c-4-5-28-66-52-138-25-71-48-138-52-147l-7-18h-37l-39 103c-21 56-47 125-57 152-10 28-22 54-27 60l-8 9v-144c0-80-3-161-6-181l-6-37 21-21c33-33 26-47-19-41-22 3-120 69-120 81 0 6 9 13 19 16l19 5 7 171c4 95 5 203 3 241l-3 69-30 9c-16 5-36 11-43 14l-13 4 6 10 6 10h72c40 0 82-3 93-6zm-909-416-5-13-1 19c-1 11 2 17 5 13 3-3 4-12 1-19zm-20-80-5-13v50l5-12c2-7 2-19 0-25zm-10-55-5-18v60l5-12c2-7 2-21 0-30zm-10-85-4-23v40l-1 40 5-17c2-10 2-28 0-40zm921-19c64-40 150-94 190-121 39-27 78-51 86-54l14-5 218 120c120 67 226 121 236 121h18v-30l-82-53c-46-29-114-73-153-96-38-24-88-56-110-71-22-14-61-38-86-53l-47-27-33 23c-19 13-95 66-169 119-74 52-156 110-182 128l-48 34v36h16c8 0 68-32 132-71zM87 1178l-4-23v40l-1 40 5-17c2-10 2-28 0-40zm2460 0-5-13-1 19c-1 11 2 17 5 13 3-3 4-12 1-19zM97 1093l-5-18v70l5-17c2-10 2-26 0-35zm563-18c0-3-7-51-16-108l-15-102V662l16-39 16-38-23 23-23 23v162c0 89 3 178 8 197l7 34-10-10c-6-6-34-69-63-140l-53-129-9 5c-11 6-11 8-2 135l6 90-13-55c-31-133-76-220-128-249l-26-15-26 12-26 12v91l14 32 13 33 27 18 27 17 15-12c8-6 14-15 14-19v-8l-18 5-18 4-24-19-24-19-4-62-4-61h19c11 0 32 9 46 20l26 21 30 62 30 62 21 105c12 57 23 106 25 108s9 1 16-3l12-8-5-111-5-111 10 25c6 14 32 71 59 128l48 102h15c8 0 15-2 15-5zm-542-70v-20l-8 25c-4 14-8 34-8 45v20l8-25c4-14 8-34 8-45zm1493 11c-27-42-150-160-191-181-16-8-30-17-30-19s11-24 25-49c32-56 97-124 132-138l26-10 8 8c4 4 10 27 14 50l7 42-34 3-33 3 1 35c1 36 30 117 39 108 3-2-1-30-7-61-13-62-9-74 20-58l20 11 21 67c11 38 23 80 27 96 3 15 10 27 15 27 12 0 11-9-5-63l-14-47 11 7c7 3 22 15 34 25l21 20 19-4 18-4-1-42c-1-45 6-51 26-27 7 8 17 15 22 15 6 0 19 11 30 25l19 25h48l11-20 11-21-6-21-7-20 13 4c7 2 16 15 19 27l5 22 10-1c6-1 9-5 9-8-1-4-4-22-8-41l-6-34 31 44c32 45 57 69 71 69h8l-2-68-2-67 7-13c5-6 14-12 22-12h14l-5 33-5 32 30 48 31 47h47l33 88 34 87 4-19 4-18-23-62c-12-33-28-86-35-116l-13-55-1-82v-82l-10-6-10-6v165l-15-21c-16-22-68-53-91-53-7 0-20 10-28 22l-16 22v89l-38-54c-21-30-42-54-47-54h-10l-3 28c-4 34-12 34-47-3l-29-30h-46l-16 25-16 24 7 11c17 27-33 0-73-40l-30-30-16 6c-9 3-16 12-16 18v12l35 17 34 16 11 42c19 71-11 65-66-13l-31-46-6-45c-4-25-14-77-23-116l-16-71h-20l7 39 6 39-35 6-35 7-29 24c-16 13-47 50-68 81l-39 56-7-33c-4-19-10-51-13-71l-6-38h-9c-6 0-10 7-10 16 0 30 22 159 29 174 4 8 18 56 30 105 12 50 26 97 31 105l9 14 7-7 7-6-26-93c-14-51-24-95-22-97 3-2 29 15 59 38l55 41 58 71 57 71 4-11c2-6-6-26-17-45zm916 22-5-13-1 19c-1 11 2 17 5 13 3-3 4-12 1-19zm-1520-28-6-30h144l15-10 15-10H991l-21-67c-24-79-41-184-33-213l5-20h-11c-6 0-14 6-17 14-6 15 10 140 22 170l7 18-24-7c-52-16-98-81-100-142v-28l-11 23c-12 24-23 28-33 12-3-5-13-10-20-10h-14l-14 26-13 25-13-15c-8-9-22-16-32-16h-19v61l31 45 31 45 15-5c8-3 19-6 24-6s9-4 9-8c0-5-10-8-21-8l-21 1-19-25c-10-14-21-38-24-55l-6-30 34 38c19 20 37 37 41 37h8l-3-40c-4-50 2-56 30-26l23 24 12 48 12 49 9-5 10-5-4-20-3-20 20 18c11 10 33 21 48 26l29 7 18 35 17 34-45 3-45 3v19h34c19 0 41 3 50 6l16 6v17c0 15 18 41 28 41 3 0 2-13-1-30zm1510-22-5-13-1 19c-1 11 2 17 5 13 3-3 4-12 1-19zM148 900c0-8-6 1-13 20s-13 42-13 50 6-1 13-20 13-42 13-50zm957 10 6-10h-10c-6 0-11 5-11 10 0 6 2 10 4 10 3 0 8-4 11-10zM216 745c118-250 297-436 545-569 46-25 80-46 74-46-19 0-160 82-238 138l-78 56-82 85-83 86-57 86c-55 84-128 228-141 279l-6 25 11-25c7-14 31-65 55-115zm798 73c-8-29-14-58-14-65v-13h13c21 0 51 38 62 78l10 35 14 5 14 5-7-19c-4-11-10-35-12-54l-5-35 13 19c7 10 25 36 41 57l27 39h20c11 0 20-1 20-3 0-1-5-18-10-37l-10-35 6-37 6-38h22c12 0 27 5 34 12l12 12v-10c0-17-23-34-46-34h-23l-16 17-17 17 5 53c3 29 4 53 2 53s-20-27-40-60l-36-60h-14c-8 0-17 5-20 10l-7 11-13-11-14-12-23 4-23 3 1 41c1 43 21 104 34 104h7l-13-52zm1297 43-25-7-24-48-24-48 7-6 7-7 32 37c37 43 47 41 39-7l-5-32 9-6c12-7 25 2 46 33l17 24v-35l-25-25-25-25-20 11-20 11v14c0 19-8 19-26 0-20-19-43-19-50 0l-6 15 12 31c7 16 21 41 32 54l19 25 27-1 27-1-24-7zM928 103c24-8 41-17 39-19-5-6-117 36-117 43 0 3 8 2 18-2 9-4 36-14 60-22zm79-29c-3-3-12-4-19-1l-13 5 19 1c11 1 17-2 13-5zm130-30c-3-3-12-4-19-1l-13 5 19 1c11 1 17-2 13-5zm707 790-7-25 11-11 11-11 15 6 16 6v61h-40l-6-26zm319 18c-16-10-57-92-49-99 9-10 36 18 57 58l19 38-8 5c-4 2-13 2-19-2zm-353-58c-18-47 5-70 43-41l16 12-24 28-25 28-10-27zM780 2500l-15-10h10c6 0 17 5 25 10l15 10h-10c-5 0-17-5-25-10zm-100-51c-117-64-197-125-300-228l-95-96-58-86c-111-168-183-352-212-549l-15-95 1-95c0-52 4-117 9-145l8-50-5 130-6 130 17 114 17 113 30 92c16 50 51 136 78 191l49 100 59 82c121 169 284 313 451 397 28 14 52 29 52 31 0 7 0 8-80-36zM22 1075v-30l5 18c2 9 2 23 0 30l-5 12v-30zm9-51 1-19 5 13c3 7 2 16-1 19-3 4-6-2-5-13z"/></g><g fill="#0b0a12" transform="matrix(.1 0 0 -.1 0 261)"><path d="M1580 2539c158-43 303-106 412-180 70-48 201-160 194-166-3-3-31 17-63 44-155 133-343 226-553 274l-85 20-132 6-132 6-93-13c-490-66-882-423-1004-915l-25-100-6-151-6-151 17-104 17-104 34-102c40-120 78-198 152-313l55-85 102-101 101-101 75-50c143-96 303-163 470-199l85-18h150l150 1 97 26c53 15 137 44 187 65l89 39 89 59 88 58 97 94 96 93 62 87c101 142 170 292 212 461l22 86v380l-16 70c-9 39-19 84-22 100l-6 30 15-45c9-25 22-83 31-130l15-85v-280l-15-86c-32-180-105-355-219-524l-61-90-116-115-115-115 50 35c27 19 95 80 150 135l101 100 56 85c72 109 121 209 158 318l29 88-6 23-6 24 13-8 13-8-7 27-7 28 10-6 9-6-3 232-2 233-17 65c-47 185-114 339-204 465-171 242-429 419-704 485-83 20-145 27-78 9zm-522-481c6-7 33-75 62-151 28-76 54-146 57-154l6-15 46 123 47 124 82 3 82 3 6-16 7-16-22-20-21-20v-123l9 9c4 6 42 56 84 112l76 101-22 15-22 15 11 11 11 12 103-3 103-3 5-12 4-13h-21c-11 0-35-9-54-20l-34-20-102-151-102-150 32-37c18-20 54-61 81-91l49-54 22 12c12 6 30 16 39 23l17 13 11-11 11-11-7-16-6-17-57-33c-31-19-71-40-89-47l-33-13-12 12-11 11 12 20 12 19-56 65c-31 37-58 66-60 66s-4-45-4-100v-100h24c14 0 28-5 31-11l7-10-16-18c-8-9-47-32-86-51l-70-34-17 17-17 16 20 22 19 21 2 237 3 236-54-148c-29-81-56-151-60-154l-7-7-17 10-17 11-41 104c-58 149-63 162-73 184l-10 20v-181l-1-182 15-12c8-7 15-21 15-31v-19h-42l-59 36-59 35v39h40v479l-40 11-40 11v29h188l10-12zm1431-358v-15l-9 20c-5 11-9 25-9 30l-1 10 10-15c5-8 9-22 9-30zM970 1438c47-29 137-86 200-127s119-74 125-74c5 0 109 54 230 121 120 67 222 122 225 122s11-4 19-9l14-9-5-13c-3-8-74-57-157-109-84-52-189-119-234-148l-82-53-15 4c-17 4-356 241-409 285l-34 29 6 16c10 26 24 21 117-35zM646 955c-9-64-16-152-16-195v-77l15-43c18-50 11-65-15-32l-18 22-8 67-7 66 7 89c4 50 9 104 12 121l5 32-14-25c-8-14-34-73-57-132l-43-108h-29l6 83c3 45 4 78 2 72-2-5-11-34-20-63s-30-75-47-103l-31-50-29-15-29-15-21 11c-11 6-24 22-29 36l-10 25 6 41 7 41 30 34 30 34 21-3 21-3 3-17 3-18h-48l-18-20-18-20-5-50-5-50h52l21 23c46 48 85 154 105 287 4 25 12 51 17 57l10 13 9-6 9-5V855l39 87c21 47 49 101 61 118l22 32 10-10 10-10-16-117zm989 105 6-10-43-57c-40-52-138-143-184-169l-19-11 20-39c11-21 43-62 72-91l52-53h41l6 28c3 15 8 35 10 44l5 16-21-5-20-5-16 13-16 13 5 36c2 19 12 52 21 73l16 38 8-5 9-5-15-61-15-60 7-7 7-7 19 20 20 20 21 74c12 41 26 83 31 94l10 18 10-10 10-10-10-18c-5-11-12-32-16-48l-7-29 31 27c36 30 43 31 60 11l12-15-4-34-4-33 37 24c21 14 40 30 42 37 3 7 14 16 26 19l20 5 20-15 21-14v-50l10 6c6 3 10 15 10 26v19h33l-6-35-6-35 33 43 32 42h38l-3-57c-3-62 5-98 20-98h9v78l33 44 34 43 19-2 19-2 28 79c27 76 41 99 54 86 3-3-6-39-20-79-15-40-33-102-42-138l-15-64V610h-9c-14 0-21 28-21 88v55l-22-20c-13-11-34-26-46-33l-24-12-23 22-24 23-3 46-3 46-34-53-33-52h-28l-6 25c-7 29-20 32-33 7-5-10-21-24-35-31l-25-14-26 17-25 16v40h-10c-6 0-27-16-47-35s-42-35-50-35h-14l-6 17-7 17 19 10c10 6 29 21 42 33l23 22v64l-21-19c-12-10-31-32-42-49l-21-29-26-120-25-119-14-5-14-5 6 42 5 41h-58l-45 41c-25 23-54 57-66 75-11 19-24 34-28 34-5 0-12-28-17-62l-9-61-14-5-14-5 8 69c4 38 9 83 10 99 1 17 5 37 8 45 9 22 45 140 55 179l8 35 12 4 12 4v-21c0-12-9-54-20-93-23-83-24-88-10-88s140 121 175 169c31 42 40 48 50 31zm-620-50-7-30h162v-20h-169l-10-18c-5-10-19-54-30-99l-21-81V648l-12 4-13 5-3 42c-2 24 2 66 8 93 6 28 8 53 5 57-10 10-60-27-78-58l-19-31v-70h-9c-5 0-12 6-15 14l-6 14-33-5-33-5-7 22-7 21-19-17-20-18-17 11-17 11 1 30 2 31 28 40 29 41 24-2 24-3 5-13 4-13-13 2c-8 1-20 1-27 0l-13-1-20-46c-26-58-20-65 16-19l27 36 11-4 12-4-3-36-4-37 17 6c20 8 40 48 49 97l7 37h29v-15c0-19 9-19 34 0 11 8 28 15 37 15h17l11 31c6 18 11 34 11 36s-19 3-41 1l-42-3-4 11-4 12 51 7 51 7 5 14c2 8 6 21 9 29l4 15h33l-7-30zm45-89c0-6-4-13-10-16l-10-6v15c0 9 5 16 10 16 6 0 10-4 10-9zm558-10 5-13-14 4c-7 2-15 10-17 17l-4 14 13-5c7-2 15-10 17-17zm-508-1c0-5-4-10-9-10-6 0-13 5-16 10l-6 10h15c9 0 16-4 16-10zm-84-52c-4-13-9-45-13-72l-6-48 25 16 26 17 12 44 13 45h30l-7-27c-3-16-8-39-11-53l-6-25 20 35c10 20 32 48 47 63l27 28 11-4 11-4V725l20 1c11 1 28 5 38 9l19 8-13-22c-8-12-22-24-32-27l-18-6-24 16-25 16-1 53v52l-12-19c-7-10-25-36-40-58l-28-40-18 16-17 16-16-16-16-16-21 7-21 6v79l16 40c9 22 21 40 26 40h10l-6-22zm1298 16c9-3 16-10 16-15v-9l-21 3-21 2-18-25c-10-14-21-36-25-50l-6-25 30 33c17 17 35 32 41 32h10v-80h9c6 0 18 14 28 30 30 52 46 34 18-20l-15-30-27-6-27-7-14 22-15 22-17-16-17-15-17 6-16 6v54l30 47 30 47h14c8 0 21-3 30-6zm-473-36-9-23 8-9 9-9 16 7 16 6-3 22c-2 12-9 23-16 26l-12 4-9-24zm295-13c-9-14-21-36-26-50l-10-25h9c15 0 61 72 61 95 0 14-20 2-34-20zm-336-40c-6-15-10-28-10-31 0-8 49-4 55 6l6 9-21 21-20 20-10-25zM484 2318l-19-23 23 19c21 18 27 26 19 26-2 0-12-10-23-22zm-124-115-82-88-53-80c-29-44-69-111-88-150-37-74-87-208-86-228 0-7 11 17 23 53 70 199 170 362 315 513 35 37 62 67 59 67-4 0-43-39-88-87zM90 1588c-12-51-26-136-31-188l-9-95 6-80c26-348 150-624 383-855l76-76 85-56c47-31 112-69 145-86 63-31 228-92 248-92 7 1-29 16-78 34-184 66-339 167-477 307l-77 78-65 99C159 784 89 994 73 1245l-6 100 12 104c6 57 18 131 27 164 8 32 13 61 11 64-3 2-15-38-27-89zm-68-48v-25l5 13c2 6 2 18 0 25l-5 12v-25zm-10-65v-30l5 18c2 9 2 23 0 30l-5 12v-30zm-8-170v-120l3 63c2 34 2 88 0 120l-3 57v-120zm7-181 1-19 5 13c3 7 2 16-1 19-3 4-6-2-5-13z"/></g><g fill="#030307" transform="matrix(.1 0 0 -.1 0 261)"><path d="M1180 2534c-14-2-59-9-100-15-155-23-336-98-479-199l-74-53-81-81-81-82-56-85c-96-143-159-289-195-456l-17-78v-165l-1-165 22-102c53-244 159-447 331-635 29-32 57-58 63-58h9l-5 9-6 9 12 6 13 6-22-4-23-4-6 9-5 9h32l-3 28-3 27-20 13-20 13 37-3 37-4-6 27-5 27 11 6 11 7v-31h21l-7-11c-4-7 7-2 24 11l30 23 7 24c3 14 3 33 0 44l-6 19-9-5-8-5 1 179c1 99 1 178 0 177s-23-53-48-116-48-116-50-119c-3-2-11 2-19 9l-15 12 4 46 5 47-6-15c-26-62-60-120-87-148l-31-32h-21c-11 0-31 7-43 16l-22 15v37c0 20 5 54 10 74l11 38 33 25 33 25 16-6c17-6 30-31 22-44l-5-8-18 4-17 5-18-13-18-14-9-39c-5-22-7-48-4-57l5-18h15c21 0 62 46 89 100 23 46 36 95 58 210l13 65 17 3 17 3V968l1-103 32 70c18 39 42 89 55 112l22 43h15c22 0 23-10 9-105-8-49-15-139-17-200l-2-110 13-37 14-38h33l-14-9-14-9 7-11c4-6 14-11 22-11h14v35l20 13c11 7 20 18 19 25l-1 12-5-12c-2-7-9-13-14-13h-10l7 12 7 11-11-7-10-6-5 7c-2 5-2 2 0-6l3-13-15 6-15 5-1-12c0-7-5-1-10 12l-9 24 17 13c10 7 21 14 26 14 13 0 22-5 19-13-4-12 16-8 21 6l5 12 2-20 1-20 15 28c17 32 28 36 19 7l-6-20h8c12 0 14 38 3 45-5 3-18 1-28-4l-19-10-13 24c-14 26-30 33-30 14v-10l-27 3-28 3-3 31-3 30 33 50 34 49 24-3c14-1 29-7 34-12l9-9-8-18-7-18-5 13c-3 6-11 12-19 12h-14l-20-33c-26-41-25-55 0-32l21 19-5 11-4 12 21-1 22-1-2-45-2-45 25 28 24 28 6 39 6 40 15 11 14 12 6-21 5-22 21 15c12 8 29 15 39 15h17l11 19c5 11 10 24 10 30v11h-80v14c0 17 22 26 64 26h32l13 36 13 35 11-4 12-4v-26l-1-27h31c16 0 54-3 83-6l52-7v-26l-92-3-91-3-19-55-19-55-2-46-2-47-7 5-8 4v-69l17-13 17-14-9 14-8 14 16-6 17-6v31l-14-5-15-6 6 16c3 8 6 39 7 68 0 30 3 52 5 49 3-2 11 10 18 27l13 31 12-5c7-2 12-9 11-13-1-5-4-23-8-39l-7-30 10 14 10 13 6-10 6-11-20-6-20-6v-20c0-24 12-24 34 0l17 19 2 28 2 29 18 13 17 13 10-6 11-7-7-21c-4-12-9-29-12-37s10 5 29 30l35 45 18 3c10 2 22 0 26-5l9-8-11-41-11-40 7-27 6-27h21l-5 23-6 22 6-13 6-13 15 21 15 21 14-12 14-11v30l22 5 21 6-10 13-10 13 18 30 19 30 1-30 1-30 13 49 14 48-6 14-5 14h20l12 50 12 50h38v-12c0-7-11-51-25-98-13-46-23-85-22-87 1-1 26 16 55 38l52 40-6 11-7 11 10-6 11-7 48 65c52 68 61 74 71 49l6-15-38-55c-21-30-57-72-80-92l-42-37-10-42-11-43h20l-5-15-6-14 11-7 11-7 13 17 12 17 5-13 5-13 3 30c1 17 2 36 2 43-1 6 3 12 7 12s11 11 14 24l6 24 25 4 25 5v-8c0-5-5-9-11-9h-10l6-9 5-10-9-6-10-6 6-14c3-8 11-15 18-15h12l19 72 19 73 19 3 19 4-6-28c-4-16-10-40-13-54l-7-25 25 23c13 12 32 22 41 22h16l11-21 12-21-7-26-6-26 23 19c13 11 33 30 46 42l23 23h22c13 0 28-5 35-12l12-12v-30l1-31 14 33c8 17 19 32 25 32h10v-54l34 37c18 20 39 37 45 37h11l14-32 14-33-15-12-15-12 6-35c4-20 11-36 15-36h8l-5 25-4 25 21 35c12 20 17 33 11 30l-10-6v22l-10-6-10-6v31l19-12 20-12 19 17c10 9 28 17 39 17h21l5 28c3 15 17 53 31 85l26 58 10-6c15-9 12-27-19-122-16-49-32-106-36-128l-7-40 29 55 29 55h68l6-25 6-25 18 2 18 1-11-11c-6-6-11-17-11-25v-14l20 23 19 24 1-28c0-16-5-38-11-49l-11-20 14 5c7 2 12 10 10 16-1 6 2 11 6 11 20 0 84 183 109 310l17 85-1 150v150l-22 102c-104 497-462 851-961 953l-100 20-123 5c-67 2-133 2-147-1zm-137-463 24-9 23-64c12-34 38-105 58-157l35-93 44 118c24 65 49 122 56 126 13 9 106 9 145 1l22-5v-37l-16-9-15-8 3-58 3-58 73 98 74 98-16 12c-9 6-16 18-16 27v16l33 6c17 3 68 5 112 3l80-3v-40l-25-4c-14-1-37-12-52-22l-27-20-96-140c-52-77-95-144-95-150 0-5 34-47 76-94l76-85 33 20c18 11 40 20 49 20h16v-37l-22-20c-13-12-50-35-83-52l-59-32-21 3-20 3-3 19-4 19 10 6 11 6-59 65-60 65 3-95 2-95 23 3 22 3 6-15 6-14-10-19-10-18-66-33-66-33-22 3-23 3-3 19-4 20 14 10 15 11 7 235 6 235-53-145-52-145h-49l-27 65c-14 36-38 99-54 140s-31 78-34 82-7-67-9-156l-4-164 23-21 23-22-11-17-11-17-22 3c-27 3-127 62-134 80-7 17 4 42 19 42h13l5 26c2 15 5 118 6 230l2 203-20 10c-11 6-29 11-41 11h-21l-6 16-6 16 14 9 14 9h144l24-9zm-74-628c42-26 127-80 190-121s120-76 127-79l13-5 218 121 218 122 20-3 20-3 3-20 2-20-37-24c-21-14-103-65-183-114s-152-95-160-102-37-25-63-40l-48-26-47 34c-26 18-125 89-219 156l-173 122v18c0 45 26 41 119-16zm91-528v-15h-30v30h30v-15zm49 1 11-13-14-12-14-12-6 17c-13 34 1 47 23 20zm519-3 4-13h-42v31l17-3c9-2 18-9 21-15zm-333-63 6-10h-10c-6 0-11 5-11 10 0 6 2 10 4 10 3 0 8-4 11-10zM600 649c0-5-7-9-15-9-15 0-20 12-9 23 8 8 24-1 24-14zm-85-137c8-21 3-22-17-2l-18 17h15c8 0 17-7 20-15zm-25-64v-11l-7 6-6 7-14-11-13-11v10c0 10 15 19 33 21 4 1 7-4 7-11zm1240 2050c135-60 181-84 255-132l85-56 86-82 86-83 65-85 64-85 54-110 54-110 25-87c14-48 32-134 40-191l16-105v-177l-15-100c-18-115-47-227-81-304-41-91-20-67 25 29l42 90 19 77c11 43 25 119 31 168l11 90-6 111c-11 207-54 373-139 538l-51 100-57 76c-31 41-94 111-140 155l-84 81-88 58-87 58-105 44c-57 24-110 44-117 43h-13l25-11zM72 1480v-25l5 13c2 6 2 18 0 25l-5 12v-25zm-10-175-2-130 15-95c29-177 103-364 205-515l53-79 96-96 96-96 63-43c34-23 62-40 62-37s-21 20-48 38c-69 47-215 191-271 267-105 141-178 296-223 470l-30 116-7 165-8 165-1-130zm419-441 1-19 5 13c3 7 2 16-1 19-3 4-6-2-5-13zm1231-14c-6-14-11-21-11-15-1 9-10-2-46-58l-18-28 36 17 37 18 11 33c6 18 9 39 6 46l-5 12-10-25zm-811-13c-13-7-33-24-44-39l-20-27-4-58-4-58 15 18 14 18 5-18 5-18 7 23c4 12 12 22 17 22h10l-5-15-6-14 9-6 10-6v130l10 27c13 33 10 36-19 21zm-7-103 6-15-10 6c-6 3-10 10-10 16 0 14 7 11 14-7zm553 109c-4-3-7-11-7-17v-10l12 12c6 6 9 14 7 17-3 3-9 2-12-2zm410 0c-4-3-7-15-7-25v-18h30l-2 25c-2 25-9 31-21 18zm308-4c-4-6-5-12-2-15 2-3 7 2 10 11 7 17 1 20-8 4zm125 7c0-2 11-11 24-19l24-16-5 19-5 20h-19c-11 0-19-2-19-4zm-877-23c-17-6-17-23 0-23h14v15c0 8-1 15-1 14-1 0-7-3-13-6zm863-1c-10-16-26-62-21-62 2 0 13 13 25 29l20 30-9 5-10 6-5-8zm-1121-22-6-10h10c6 0 11 5 11 10 0 6-2 10-4 10-3 0-8-4-11-10zm412-17c-7-35-4-37 22-23l21 11v32l-7-6-6-7-12 10-13 10-5-27zm583 18v-12l-9 5-9 6-6-16c-10-25-1-27 19-4l18 20-6 7-7 6v-12zm-334-17c-10-25-7-34 10-34h16l-6 16-6 17 17-14 18-14-19 23c-23 26-22 26-30 6zm514-19v-27l15 12 16 13-8 6c-4 4-11 10-15 15l-8 9v-28zm-1199-4-10-18 6-7c3-3 10-6 14-6h7l-5 19-5 19 19 5 18 5-17 1-17 1-10-19zm593-22c-15-16-23-29-18-29s15 9 22 21l13 20 19-6 20-6v9c0 6-6 12-14 15l-14 5-28-29zm161 1-29-30h34v21l9-6 10-5 6 21c10 32 1 32-30-1zm-598 5-6-14 7-5 8-5 1 20c2 23-3 25-10 4zm167-7c3-21 26-58 35-58h9v52l-8-12-8-13-11 7c-6 4-9 11-6 16s1 11-4 14l-9 6 2-12zm521 1c-11-17 1-21 15-4l12 15h-10c-6 0-14-5-17-11zm-604-15 1-19 5 13c3 7 2 16-1 19-3 4-6-2-5-13zm782 4c-6-7-14-20-18-28l-9-15 16 13 17 13 4-38 4-38 1 53c2 55 0 60-15 40zm59-1c-1-7-4-24-8-39l-6-28h11c7 0 10 3 7 8l-4 7 39 1 39 1v-30l7 7c4 3 8 13 9 21l2 15h-19l6 10 6 10h-26l14 9 13 9-8 4c-5 3-18 0-30-6l-21-11 3-18 2-17h-18v24c0 14-4 27-8 30l-9 5-1-12zm-575-14c-10-9-9-33 1-33 4 0 8 9 9 20 2 21 0 24-10 13zm727-7-11-11 5-14 5-14-17-9-16-9 5-9c3-5 1-11-5-15-5-3-10-11-10-18v-11l14 19c8 11 12 23 10 27-3 5-1 8 5 8s17 13 26 29l15 30-8 4c-4 3-12 0-18-7zm-1124-12-25-14h16c9 0 22 7 29 15 15 18 13 18-20-1zm320 9c8-3 18-11 22-17l8-11v35l-22-1-23-1 15-5zm108 0c7-3 16-2 19 1 4 3-2 6-13 5l-19-1 13-5zm160 0c7-3 16-2 19 1 4 3-2 6-13 5l-19-1 13-5zm260-20c7-3 16-2 19 1 4 3-2 6-13 5l-19-1 13-5zm-573-23 6-10 10 5c14 9 11 15-7 15h-15l6-10zm755-2v-18h-21l13-14c7-8 16-12 21-9 4 2 7-1 7-8v-13l12 12 13 13-11 7c-6 4-16 16-22 27l-11 20-1-17zm-649-15c0-12-4-30-7-40l-6-18 12 18 11 18-4 22-4 22-2-22zm-56-3-6-10h10c6 0 11 5 11 10 0 6-2 10-4 10-3 0-8-4-11-10zm-834-49-14-9 22-23 21-23v24h15c19 0 19 7 1 26-17 16-25 17-45 5zm-91-6c0-15 18-40 24-34 3 3-1 14-9 25-8 10-14 15-15 9zm1635-15-6-10h15c8 0 18 5 21 10l6 10h-15c-8 0-18-4-21-10zm30-80-6-10h10c5 0 13 5 16 10l6 10h-10c-5 0-13-4-16-10zM650 462v-22h9c10 0 9 26-2 36l-7 7v-21zm-115-23c-4-6-5-12-2-15 2-3 7 2 10 11 7 17 1 20-8 4zm1631-28-30-36 34 32c19 18 32 34 29 36-2 2-17-12-33-32zm-1511 9-6-10h10c6 0 11 5 11 10 0 6-2 10-4 10-3 0-8-4-11-10zm-89-99-6-9 25-16 24-16 15 6c18 7 22 24 5 24h-10l7 13 7 12-14-12c-7-7-21-13-32-13h-18l6 10c3 6 4 10 1 10s-7-4-10-9zm54-21c0-5-5-10-11-10h-10l6 10c3 6 8 10 11 10 2 0 4-4 4-10zm20-38c0-5 7-13 16-16l16-6-4 12c-2 6-10 14-16 16l-12 4v-10zm80-56c0-2 7-7 16-10l15-6-6 10c-6 10-25 14-25 6z"/></g></g></svg>